<svg height="558" width="720" xmlns="http://www.w3.org/2000/svg">
<rect height="558" fill="#555" width="720"></rect>
<text fill="#7f7" font-family="Courier New" font-size="12" xml:space="preserve">
<tspan x="10" y="26">4 megabytes installed</tspan>
<tspan x="10" y="42"></tspan>
<tspan x="10" y="58">node_modules</tspan>
<tspan x="10" y="74">├─┬ bootstrap-loader@2.0.0 </tspan>
<tspan x="10" y="90">│ ├─┬ chalk@1.1.3 </tspan>
<tspan x="10" y="106">│ │ ├── ansi-styles@2.2.1 </tspan>
<tspan x="10" y="122">│ │ ├── escape-string-regexp@1.0.5 </tspan>
<tspan x="10" y="138">│ │ ├─┬ has-ansi@2.0.0 </tspan>
<tspan x="10" y="154">│ │ │ └── ansi-regex@2.1.1 </tspan>
<tspan x="10" y="170">│ │ ├── strip-ansi@3.0.1 </tspan>
<tspan x="10" y="186">│ │ └── supports-color@2.0.0 </tspan>
<tspan x="10" y="202">│ ├── escape-regexp@0.0.1 </tspan>
<tspan x="10" y="218">│ ├─┬ exports-loader@0.6.4 </tspan>
<tspan x="10" y="234">│ │ └── source-map@0.5.6 </tspan>
<tspan x="10" y="250">│ ├─┬ js-yaml@3.8.3 </tspan>
<tspan x="10" y="266">│ │ ├─┬ argparse@1.0.9 </tspan>
<tspan x="10" y="282">│ │ │ └── sprintf-js@1.0.3 </tspan>
<tspan x="10" y="298">│ │ └── esprima@3.1.3 </tspan>
<tspan x="10" y="314">│ ├─┬ loader-utils@1.1.0 </tspan>
<tspan x="10" y="330">│ │ ├── big.js@3.1.3 </tspan>
<tspan x="10" y="346">│ │ ├── emojis-list@2.1.0 </tspan>
<tspan x="10" y="362">│ │ └── json5@0.5.1 </tspan>
<tspan x="10" y="378">│ ├─┬ resolve@1.3.2 </tspan>
<tspan x="10" y="394">│ │ └── path-parse@1.0.5 </tspan>
<tspan x="10" y="410">│ ├── semver@5.3.0 </tspan>
<tspan x="10" y="426">│ └── strip-json-comments@2.0.1 </tspan>
<tspan x="10" y="442">├── UNMET PEER DEPENDENCY css-loader@*</tspan>
<tspan x="10" y="458">├── UNMET PEER DEPENDENCY extract-text-webpack-plugin@&gt;=2.1.0</tspan>
<tspan x="10" y="474">├── UNMET PEER DEPENDENCY node-sass@*</tspan>
<tspan x="10" y="490">├── UNMET PEER DEPENDENCY resolve-url-loader@*</tspan>
<tspan x="10" y="506">├── UNMET PEER DEPENDENCY sass-loader@*</tspan>
<tspan x="10" y="522">├── UNMET PEER DEPENDENCY url-loader@*</tspan>
<tspan x="10" y="538">└── UNMET PEER DEPENDENCY webpack@&gt;=2.2.0</tspan>
</text>
</svg>
